<?xml version="1.0" encoding="UTF-8"?>
<svg version="1.1" xmlns="http://www.w3.org/2000/svg" width="32" height="32">
<path d="M0 0 C1.67542976 0.28604898 3.34385343 0.61781233 5 1 C6.125 5.75 6.125 5.75 5 8 C4.34 8 3.68 8 3 8 C2.566875 6.5459375 2.566875 6.5459375 2.125 5.0625 C1.35785318 1.89335797 1.35785318 1.89335797 -1 1 C-0.67 0.67 -0.34 0.34 0 0 Z " fill="#99F2AB" transform="translate(18,8)"/>
<path d="M0 0 C-0.33 0.99 -0.66 1.98 -1 3 C-2.65 2.67 -4.3 2.34 -6 2 C-6 1.34 -6 0.68 -6 0 C-3 -1 -3 -1 0 0 Z " fill="#95EEBC" transform="translate(19,14)"/>
<path d="M0 0 C2 1 2 1 2 1 Z " fill="#76E6AF" transform="translate(15,19)"/>
<path d="M0 0 C2 1 2 1 2 1 Z " fill="#69DEAB" transform="translate(9,10)"/>
<path d="M0 0 C2 1 2 1 2 1 Z " fill="#208040" transform="translate(12,9)"/>
<path d="" fill="#66CC99" transform="translate(0,0)"/>
<path d="" fill="#000000" transform="translate(0,0)"/>
</svg>
